<?xml version="1.0" encoding="UTF-8"?>
<svg width="24" height="24" viewBox="0 0 24 24" fill="none" xmlns="http://www.w3.org/2000/svg">
  <path d="M7 2H17C18.1046 2 19 2.89543 19 4V6C19 7.10457 18.1046 8 17 8H7C5.89543 8 5 7.10457 5 6V4C5 2.89543 5.89543 2 7 2Z" fill="#FFD700"/>
  <path d="M6 8H18V20C18 21.1046 17.1046 22 16 22H8C6.89543 22 6 21.1046 6 20V8Z" fill="#FFD700"/>
  <path d="M8 2H16V4H8V2Z" fill="#FFD700"/>
  <path d="M9 12H15V14H9V12Z" fill="#8B4513"/>
  <path d="M9 16H15V18H9V16Z" fill="#8B4513"/>
</svg>